<svg width="126" height="40" viewBox="0 0 126 40" fill="none" xmlns="http://www.w3.org/2000/svg">
<path d="M105.178 25.86V14.86H107.538V16.46H108.018L107.638 16.74C107.638 16.1133 107.818 15.6133 108.178 15.24C108.538 14.8533 108.984 14.66 109.518 14.66C110.091 14.66 110.538 14.9067 110.858 15.4C111.178 15.8933 111.338 16.5467 111.338 17.36L110.978 16.46H111.538L111.358 16.74C111.358 16.1133 111.531 15.6133 111.878 15.24C112.224 14.8533 112.691 14.66 113.278 14.66C113.944 14.66 114.484 14.9133 114.898 15.42C115.311 15.9133 115.518 16.5933 115.518 17.46V25.86H112.938V17.66C112.938 17.3533 112.871 17.12 112.738 16.96C112.604 16.7867 112.411 16.7 112.158 16.7C111.904 16.7 111.711 16.7867 111.578 16.96C111.444 17.12 111.378 17.3533 111.378 17.66V25.86H109.318V17.66C109.318 17.3533 109.251 17.12 109.118 16.96C108.984 16.7867 108.791 16.7 108.538 16.7C108.284 16.7 108.091 16.7867 107.958 16.96C107.824 17.12 107.758 17.3533 107.758 17.66V25.86H105.178Z" fill="white"/>
<path d="M96.9262 26.06C95.8195 26.06 94.9395 25.76 94.2862 25.16C93.6462 24.56 93.3262 23.7467 93.3262 22.72C93.3262 21.6133 93.7062 20.7667 94.4662 20.18C95.2395 19.58 96.3462 19.28 97.7862 19.28H100.066V18.46C100.066 18.0333 99.9128 17.6933 99.6062 17.44C99.3128 17.1867 98.9128 17.06 98.4062 17.06C97.9395 17.06 97.5528 17.1667 97.2462 17.38C96.9395 17.5933 96.7528 17.8867 96.6862 18.26H93.7862C93.9062 17.1533 94.3862 16.28 95.2262 15.64C96.0795 14.9867 97.1728 14.66 98.5062 14.66C99.9062 14.66 101.013 15.0067 101.826 15.7C102.653 16.38 103.066 17.3 103.066 18.46V25.86H100.166V24.06H99.6862L100.186 23.36C100.186 24.1867 99.8862 24.8467 99.2862 25.34C98.6995 25.82 97.9128 26.06 96.9262 26.06ZM98.0462 23.86C98.6328 23.86 99.1128 23.7067 99.4862 23.4C99.8728 23.08 100.066 22.6667 100.066 22.16V20.98H97.8462C97.3928 20.98 97.0262 21.1133 96.7462 21.38C96.4662 21.6333 96.3262 21.9733 96.3262 22.4C96.3262 22.8533 96.4795 23.2133 96.7862 23.48C97.0928 23.7333 97.5128 23.86 98.0462 23.86Z" fill="white"/>
<path d="M86.3737 26.06C85.4004 26.06 84.547 25.88 83.8137 25.52C83.0937 25.1467 82.5337 24.6333 82.1337 23.98C81.747 23.3133 81.5537 22.54 81.5537 21.66V19.06C81.5537 18.18 81.747 17.4133 82.1337 16.76C82.5337 16.0933 83.0937 15.58 83.8137 15.22C84.547 14.8467 85.4004 14.66 86.3737 14.66C87.3471 14.66 88.187 14.8467 88.8937 15.22C89.6137 15.58 90.1671 16.0933 90.5537 16.76C90.9537 17.4133 91.1537 18.18 91.1537 19.06V21.06H84.4137V21.66C84.4137 22.3533 84.5804 22.88 84.9137 23.24C85.247 23.5867 85.747 23.76 86.4137 23.76C86.8804 23.76 87.2537 23.68 87.5337 23.52C87.827 23.36 88.0204 23.14 88.1137 22.86H91.0537C90.8137 23.82 90.267 24.5933 89.4137 25.18C88.5737 25.7667 87.5604 26.06 86.3737 26.06ZM88.2937 19.52V19.02C88.2937 18.34 88.1337 17.82 87.8137 17.46C87.507 17.1 87.0271 16.92 86.3737 16.92C85.7204 16.92 85.227 17.1067 84.8937 17.48C84.5737 17.8533 84.4137 18.38 84.4137 19.06V19.36L88.4937 19.32L88.2937 19.52Z" fill="white"/>
<path d="M70.001 25.86V14.86H72.801V16.96H73.561L72.701 18.24C72.701 17.0533 72.9743 16.16 73.521 15.56C74.0676 14.96 74.8676 14.66 75.921 14.66C77.1343 14.66 78.0743 15.0267 78.741 15.76C79.421 16.4933 79.761 17.5267 79.761 18.86V19.76H76.561V19.06C76.561 18.46 76.3943 17.9933 76.061 17.66C75.741 17.3267 75.3076 17.16 74.761 17.16C74.1876 17.16 73.7476 17.3267 73.441 17.66C73.1476 17.9933 73.001 18.46 73.001 19.06V25.86H70.001Z" fill="white"/>
<path d="M63.5693 25.86C62.4493 25.86 61.5693 25.54 60.9293 24.9C60.2893 24.26 59.9693 23.38 59.9693 22.26V17.56H57.0693V14.86H59.9693V11.76H62.9693V14.86H67.0693V17.56H62.9693V22.26C62.9693 22.86 63.2693 23.16 63.8693 23.16H66.8693V25.86H63.5693Z" fill="white"/>
<path d="M49.917 26.06C49.0103 26.06 48.217 25.92 47.537 25.64C46.857 25.3467 46.3236 24.9467 45.937 24.44C45.5636 23.9333 45.377 23.34 45.377 22.66H48.377C48.377 22.98 48.517 23.24 48.797 23.44C49.0903 23.6267 49.4636 23.72 49.917 23.72H50.797C51.3436 23.72 51.757 23.62 52.037 23.42C52.3303 23.22 52.477 22.94 52.477 22.58C52.477 22.2467 52.3503 21.9933 52.097 21.82C51.8436 21.6333 51.4503 21.5067 50.917 21.44L49.637 21.28C48.2636 21.1067 47.2636 20.7733 46.637 20.28C46.0103 19.7867 45.697 19.0333 45.697 18.02C45.697 16.9533 46.0636 16.1267 46.797 15.54C47.5303 14.9533 48.6036 14.66 50.017 14.66H50.777C52.1236 14.66 53.197 14.9533 53.997 15.54C54.797 16.1267 55.197 16.9133 55.197 17.9H52.197C52.197 17.6333 52.0636 17.42 51.797 17.26C51.5436 17.0867 51.2036 17 50.777 17H50.017C49.5236 17 49.1636 17.0867 48.937 17.26C48.7103 17.42 48.597 17.6667 48.597 18C48.597 18.3067 48.697 18.54 48.897 18.7C49.1103 18.86 49.4436 18.9733 49.897 19.04L51.277 19.22C52.6636 19.3933 53.6903 19.74 54.357 20.26C55.037 20.78 55.377 21.5533 55.377 22.58C55.377 23.7 54.9903 24.56 54.217 25.16C53.4436 25.76 52.3036 26.06 50.797 26.06H49.917Z" fill="white"/>
<path d="M39.585 25.86C38.465 25.86 37.585 25.54 36.945 24.9C36.305 24.26 35.985 23.38 35.985 22.26V17.56H33.085V14.86H35.985V11.76H38.985V14.86H43.085V17.56H38.985V22.26C38.985 22.86 39.285 23.16 39.885 23.16H42.885V25.86H39.585Z" fill="white"/>
<path d="M26.4128 26.06C25.4394 26.06 24.5861 25.88 23.8528 25.52C23.1328 25.1467 22.5728 24.6333 22.1728 23.98C21.7861 23.3133 21.5928 22.54 21.5928 21.66V19.06C21.5928 18.18 21.7861 17.4133 22.1728 16.76C22.5728 16.0933 23.1328 15.58 23.8528 15.22C24.5861 14.8467 25.4394 14.66 26.4128 14.66C27.3861 14.66 28.2261 14.8467 28.9328 15.22C29.6528 15.58 30.2061 16.0933 30.5928 16.76C30.9928 17.4133 31.1928 18.18 31.1928 19.06V21.06H24.4528V21.66C24.4528 22.3533 24.6194 22.88 24.9528 23.24C25.2861 23.5867 25.7861 23.76 26.4528 23.76C26.9194 23.76 27.2928 23.68 27.5728 23.52C27.8661 23.36 28.0594 23.14 28.1528 22.86H31.0928C30.8528 23.82 30.3061 24.5933 29.4528 25.18C28.6128 25.7667 27.5994 26.06 26.4128 26.06ZM28.3328 19.52V19.02C28.3328 18.34 28.1728 17.82 27.8528 17.46C27.5461 17.1 27.0661 16.92 26.4128 16.92C25.7594 16.92 25.2661 17.1067 24.9328 17.48C24.6128 17.8533 24.4528 18.38 24.4528 19.06V19.36L28.5328 19.32L28.3328 19.52Z" fill="white"/>
<path d="M10 29.46V26.66H13.2C13.7467 26.66 14.1667 26.5067 14.46 26.2C14.7533 25.9067 14.9 25.4933 14.9 24.96V17.66H10.6V14.86H17.9V25.06C17.9 26.42 17.5 27.4933 16.7 28.28C15.9 29.0667 14.8067 29.46 13.42 29.46H10ZM16.3 13.12C15.7533 13.12 15.3133 12.98 14.98 12.7C14.66 12.42 14.5 12.04 14.5 11.56C14.5 11.08 14.66 10.7 14.98 10.42C15.3133 10.14 15.7533 10 16.3 10C16.8467 10 17.28 10.14 17.6 10.42C17.9333 10.7 18.1 11.08 18.1 11.56C18.1 12.04 17.9333 12.42 17.6 12.7C17.28 12.98 16.8467 13.12 16.3 13.12Z" fill="white"/>
</svg>
